{
    "asset" : {
        "generator" : "Khronos glTF Blender I/O v1.8.19",
        "version" : "2.0"
    },
    "scene" : 0,
    "scenes" : [
        {
            "name" : "Scene",
            "nodes" : [
                0
            ]
        }
    ],
    "nodes" : [
        {
            "mesh" : 0,
            "name" : "Plane.009_Plane.010",
            "rotation" : [
                0.7071068286895752,
                0,
                0,
                0.7071067094802856
            ],
            "translation" : [
                -0.06083488464355469,
                0.35198068618774414,
                0.16414356231689453
            ]
        }
    ],
    "materials" : [
        {
            "doubleSided" : true,
            "name" : "Material.010",
            "pbrMetallicRoughness" : {
                "baseColorTexture" : {
                    "index" : 0
                },
                "metallicFactor" : 0,
                "roughnessFactor" : 0
            }
        },
        {
            "doubleSided" : true,
            "name" : "glitch.003",
            "pbrMetallicRoughness" : {
                "baseColorTexture" : {
                    "index" : 1
                },
                "metallicFactor" : 0,
                "roughnessFactor" : 0
            }
        }
    ],
    "meshes" : [
        {
            "name" : "Plane.009_Plane.010",
            "primitives" : [
                {
                    "attributes" : {
                        "POSITION" : 0,
                        "NORMAL" : 1,
                        "TEXCOORD_0" : 2
                    },
                    "indices" : 3,
                    "material" : 0
                },
                {
                    "attributes" : {
                        "POSITION" : 4,
                        "NORMAL" : 5,
                        "TEXCOORD_0" : 6
                    },
                    "indices" : 7,
                    "material" : 1
                }
            ]
        }
    ],
    "textures" : [
        {
            "sampler" : 0,
            "source" : 0
        },
        {
            "sampler" : 0,
            "source" : 1
        }
    ],
    "images" : [
        {
            "mimeType" : "image/png",
            "name" : "LOGO GRAND SANS TITRE",
            "uri" : "LOGOGRAND%20SANSTITRE.png"
        },
        {
            "mimeType" : "image/png",
            "name" : "LOGO glitcheee_00000.png",
            "uri" : "LOGOglitcheee.png"
        }
    ],
    "accessors" : [
        {
            "bufferView" : 0,
            "componentType" : 5126,
            "count" : 5101,
            "max" : [
                -0.0010204315185546875,
                0.7082433700561523,
                0.487356960773468
            ],
            "min" : [
                -0.07929611206054688,
                -0.9674601554870605,
                -0.4874630272388458
            ],
            "type" : "VEC3"
        },
        {
            "bufferView" : 1,
            "componentType" : 5126,
            "count" : 5101,
            "type" : "VEC3"
        },
        {
            "bufferView" : 2,
            "componentType" : 5126,
            "count" : 5101,
            "type" : "VEC2"
        },
        {
            "bufferView" : 3,
            "componentType" : 5123,
            "count" : 13380,
            "type" : "SCALAR"
        },
        {
            "bufferView" : 4,
            "componentType" : 5126,
            "count" : 372,
            "max" : [
                -0.08209037780761719,
                0.7063741683959961,
                0.4890109896659851
            ],
            "min" : [
                -0.08209037780761719,
                -0.970210075378418,
                -0.4888940155506134
            ],
            "type" : "VEC3"
        },
        {
            "bufferView" : 5,
            "componentType" : 5126,
            "count" : 372,
            "type" : "VEC3"
        },
        {
            "bufferView" : 6,
            "componentType" : 5126,
            "count" : 372,
            "type" : "VEC2"
        },
        {
            "bufferView" : 7,
            "componentType" : 5123,
            "count" : 1110,
            "type" : "SCALAR"
        }
    ],
    "bufferViews" : [
        {
            "buffer" : 0,
            "byteLength" : 61212,
            "byteOffset" : 0
        },
        {
            "buffer" : 0,
            "byteLength" : 61212,
            "byteOffset" : 61212
        },
        {
            "buffer" : 0,
            "byteLength" : 40808,
            "byteOffset" : 122424
        },
        {
            "buffer" : 0,
            "byteLength" : 26760,
            "byteOffset" : 163232
        },
        {
            "buffer" : 0,
            "byteLength" : 4464,
            "byteOffset" : 189992
        },
        {
            "buffer" : 0,
            "byteLength" : 4464,
            "byteOffset" : 194456
        },
        {
            "buffer" : 0,
            "byteLength" : 2976,
            "byteOffset" : 198920
        },
        {
            "buffer" : 0,
            "byteLength" : 2220,
            "byteOffset" : 201896
        }
    ],
    "samplers" : [
        {
            "magFilter" : 9729,
            "minFilter" : 9987
        }
    ],
    "buffers" : [
        {
            "byteLength" : 204116,
            "uri" : "logogltf.bin"
        }
    ]
}
